<svg id="Layer_1" enable-background="new 0 0 512 512" height="512" viewBox="0 0 512 512" width="512" xmlns="http://www.w3.org/2000/svg"><g><circle cx="236" cy="50" r="10"/><circle cx="276" cy="50" r="10"/><path d="m482 210c-4.626 0-9.009 1.054-12.926 2.932-.001-.001-.002-.002-.003-.003l-63.071-63.072v-29.857c0-5.522-4.477-10-10-10h-60c-5.523 0-10 4.478-10 10v20h-40v-40h30c5.523 0 10-4.478 10-10v-30h10c5.523 0 10-4.478 10-10s-4.477-10-10-10h-10v-30c0-5.523-4.477-10-10-10h-120c-5.523 0-10 4.477-10 10v30h-10c-5.523 0-10 4.478-10 10s4.477 10 10 10h10v30c0 5.522 4.477 10 10 10h30v40h-40v-20c0-5.522-4.477-10-10-10h-60c-5.523 0-10 4.478-10 10v29.857l-63.071 63.071c-.001.001-.002.002-.003.003-3.917-1.877-8.3-2.931-12.926-2.931-16.542 0-30 13.458-30 30s13.458 30 30 30c4.626 0 9.009-1.054 12.926-2.932l.003.003 22.627 22.627c-3.525 5.956-5.556 12.895-5.556 20.302 0 22.056 17.944 40 40 40 5.523 0 10-4.478 10-10s-4.477-10-10-10c-11.028 0-20-8.972-20-20s8.972-20 20-20 20 8.972 20 20c0 5.522 4.477 10 10 10s10-4.478 10-10c0-22.056-17.944-40-40-40-7.408 0-14.346 2.031-20.302 5.555l-22.627-22.627c-.001-.001-.002-.002-.003-.003 1.878-3.916 2.932-8.299 2.932-12.925s-1.054-9.009-2.932-12.926c.001-.001.002-.002.003-.003l48.929-48.928v1.857c0 5.523 4.477 10 10 10h50v60c0 5.523 4.477 10 10 10h20v30h-20c-5.523 0-10 4.478-10 10v42c0 2.652 1.054 5.195 2.929 7.071l37.071 37.072v25.857h-30c-5.523 0-10 4.478-10 10v10h-20v-50c0-5.522-4.477-10-10-10h-60c-5.523 0-10 4.478-10 10v120c0 5.522 4.477 10 10 10h60c5.523 0 10-4.478 10-10v-50h20v10c0 5.522 4.477 10 10 10h160c5.523 0 10-4.478 10-10v-10h20v50c0 5.522 4.477 10 10 10h60c5.523 0 10-4.478 10-10v-120c0-5.522-4.477-10-10-10h-60c-5.523 0-10 4.478-10 10v50h-20v-10c0-5.522-4.477-10-10-10h-30v-25.857l37.071-37.071c1.875-1.876 2.929-4.419 2.929-7.071v-42c0-5.522-4.477-10-10-10h-20v-30h20c5.523 0 10-4.477 10-10v-60h50c5.523 0 10-4.477 10-10v-1.857l48.929 48.929c.001.001.002.002.003.003-1.878 3.917-2.932 8.3-2.932 12.926s1.054 9.009 2.932 12.926c-.001.001-.002.002-.003.003l-22.627 22.627c-5.956-3.527-12.894-5.558-20.302-5.558-22.056 0-40 17.944-40 40 0 5.522 4.477 10 10 10s10-4.478 10-10c0-11.028 8.972-20 20-20s20 8.972 20 20-8.972 20-20 20c-5.523 0-10 4.478-10 10s4.477 10 10 10c22.056 0 40-17.944 40-40 0-7.407-2.031-14.346-5.555-20.302l22.627-22.627c.001-.001.002-.002.003-.003 3.917 1.878 8.3 2.932 12.926 2.932 16.542 0 30-13.458 30-30s-13.459-30-30.001-30zm-452 40c-5.514 0-10-4.486-10-10s4.486-10 10-10 10 4.486 10 10-4.486 10-10 10zm56 182h40v20h-40zm40-40v20h-40v-20zm-40 100v-20h40v20zm340-40h-40v-20h40zm-40 40v-20h40v20zm40-100v20h-40v-20zm-220-372h100v60h-100zm40 80h20v40h-20zm-80 70h-40v-40h40zm120 70h-60v-20h60zm0 212h-60v-60h60zm-100-20h20v20h-20zm140 0v20h-20v-20zm0-94.143-34.142 34.143h-71.716l-34.142-34.143v-27.857h140zm-30-47.857h-80v-30h80zm10-50v-30c0-5.523-4.477-10-10-10h-80c-5.523 0-10 4.477-10 10v30h-20v-80h140v80zm80-70h-40v-40h40zm96 80c-5.514 0-10-4.486-10-10s4.486-10 10-10 10 4.486 10 10-4.486 10-10 10z"/></g></svg>